<mxfile host="app.diagrams.net" modified="2024-02-20T00:22:26.294Z" agent="Mozilla/5.0 (Windows NT 10.0; Win64; x64) AppleWebKit/537.36 (KHTML, like Gecko) Chrome/121.0.0.0 Safari/537.36" etag="9jAkZOC3KKQRp12C0XNO" version="23.1.5" type="device">
  <diagram id="6a731a19-8d31-9384-78a2-239565b7b9f0" name="Page-1">
    <mxGraphModel dx="880" dy="468" grid="1" gridSize="10" guides="1" tooltips="1" connect="1" arrows="1" fold="1" page="1" pageScale="1" pageWidth="1169" pageHeight="827" background="none" math="0" shadow="0">
      <root>
        <mxCell id="0" />
        <mxCell id="1" parent="0" />
        <mxCell id="2" value="start" style="shape=mxgraph.flowchart.terminator;strokeWidth=2;gradientColor=none;gradientDirection=north;fontStyle=0;html=1;" parent="1" vertex="1">
          <mxGeometry x="260" y="60" width="120" height="30" as="geometry" />
        </mxCell>
        <mxCell id="3" value="Login" style="shape=mxgraph.flowchart.data;strokeWidth=2;gradientColor=none;gradientDirection=north;fontStyle=0;html=1;" parent="1" vertex="1">
          <mxGeometry x="240.5" y="130" width="159.5" height="40" as="geometry" />
        </mxCell>
        <mxCell id="5" value="Cari buku" style="shape=mxgraph.flowchart.data;strokeWidth=2;gradientColor=none;gradientDirection=north;fontStyle=0;html=1;" parent="1" vertex="1">
          <mxGeometry x="245.25" y="210" width="149.5" height="50" as="geometry" />
        </mxCell>
        <mxCell id="7" style="fontStyle=1;strokeColor=#003366;strokeWidth=1;html=1;" parent="1" source="2" target="3" edge="1">
          <mxGeometry relative="1" as="geometry" />
        </mxCell>
        <mxCell id="8" style="fontStyle=1;strokeColor=#003366;strokeWidth=1;html=1;" parent="1" source="3" target="5" edge="1">
          <mxGeometry relative="1" as="geometry" />
        </mxCell>
        <mxCell id="9" style="entryX=0.5;entryY=0;entryPerimeter=0;fontStyle=1;strokeColor=#003366;strokeWidth=1;html=1;" parent="1" source="5" edge="1">
          <mxGeometry relative="1" as="geometry">
            <mxPoint x="321" y="290" as="targetPoint" />
          </mxGeometry>
        </mxCell>
        <mxCell id="11" value="yes" style="text;fontStyle=0;html=1;strokeColor=none;gradientColor=none;fillColor=none;strokeWidth=2;" parent="1" vertex="1">
          <mxGeometry x="342.5" y="427.5" width="40" height="26" as="geometry" />
        </mxCell>
        <mxCell id="15" value="Laporan" style="shape=mxgraph.flowchart.document;strokeWidth=2;gradientColor=none;gradientDirection=north;fontStyle=0;html=1;" parent="1" vertex="1">
          <mxGeometry x="450" y="545" width="140" height="70" as="geometry" />
        </mxCell>
        <mxCell id="16" value="" style="edgeStyle=elbowEdgeStyle;elbow=horizontal;exitX=1;exitY=0.5;fontStyle=1;strokeColor=#003366;strokeWidth=1;html=1;exitDx=0;exitDy=0;" parent="1" source="8K6KQIYLeMS0DCeynw6D-62" target="15" edge="1">
          <mxGeometry width="100" height="100" as="geometry">
            <mxPoint x="384.395" y="550" as="sourcePoint" />
            <mxPoint x="100" as="targetPoint" />
          </mxGeometry>
        </mxCell>
        <mxCell id="8K6KQIYLeMS0DCeynw6D-56" value="" style="edgeStyle=elbowEdgeStyle;elbow=horizontal;fontColor=#001933;fontStyle=1;strokeColor=#003366;strokeWidth=1;html=1;exitX=0.5;exitY=1;exitDx=0;exitDy=0;" parent="1" source="IlJeSVx5xPSjNeApjhoX-16" target="8K6KQIYLeMS0DCeynw6D-55" edge="1">
          <mxGeometry width="100" height="100" as="geometry">
            <mxPoint x="321" y="347" as="sourcePoint" />
            <mxPoint x="321" y="510" as="targetPoint" />
          </mxGeometry>
        </mxCell>
        <mxCell id="8K6KQIYLeMS0DCeynw6D-61" value="" style="edgeStyle=orthogonalEdgeStyle;rounded=0;orthogonalLoop=1;jettySize=auto;html=1;" parent="1" source="8K6KQIYLeMS0DCeynw6D-55" target="8K6KQIYLeMS0DCeynw6D-60" edge="1">
          <mxGeometry relative="1" as="geometry" />
        </mxCell>
        <mxCell id="8K6KQIYLeMS0DCeynw6D-55" value="Simpan" style="shape=mxgraph.flowchart.decision;strokeWidth=2;gradientColor=none;gradientDirection=north;fontStyle=0;html=1;" parent="1" vertex="1">
          <mxGeometry x="271" y="370.5" width="98" height="57" as="geometry" />
        </mxCell>
        <mxCell id="8K6KQIYLeMS0DCeynw6D-58" value="" style="edgeStyle=elbowEdgeStyle;elbow=horizontal;exitX=1;exitY=0.5;exitPerimeter=0;fontStyle=1;strokeColor=#003366;strokeWidth=1;html=1;entryX=1;entryY=0.5;entryDx=0;entryDy=0;exitDx=0;exitDy=0;" parent="1" source="8K6KQIYLeMS0DCeynw6D-55" target="IlJeSVx5xPSjNeApjhoX-16" edge="1">
          <mxGeometry x="381" y="28.5" width="100" height="100" as="geometry">
            <mxPoint x="380" y="329" as="sourcePoint" />
            <mxPoint x="536" y="347" as="targetPoint" />
            <Array as="points">
              <mxPoint x="536" y="390" />
            </Array>
          </mxGeometry>
        </mxCell>
        <mxCell id="8K6KQIYLeMS0DCeynw6D-59" value="no" style="text;fontStyle=0;html=1;strokeColor=none;gradientColor=none;fillColor=none;strokeWidth=2;align=center;" parent="1" vertex="1">
          <mxGeometry x="420" y="370.5" width="40" height="26" as="geometry" />
        </mxCell>
        <mxCell id="8K6KQIYLeMS0DCeynw6D-63" value="" style="edgeStyle=orthogonalEdgeStyle;rounded=0;orthogonalLoop=1;jettySize=auto;html=1;" parent="1" source="8K6KQIYLeMS0DCeynw6D-60" target="8K6KQIYLeMS0DCeynw6D-62" edge="1">
          <mxGeometry relative="1" as="geometry" />
        </mxCell>
        <mxCell id="8K6KQIYLeMS0DCeynw6D-60" value="Proses simpan" style="whiteSpace=wrap;html=1;strokeWidth=2;gradientColor=none;gradientDirection=north;fontStyle=0;" parent="1" vertex="1">
          <mxGeometry x="265.75" y="480.5" width="109" height="34.5" as="geometry" />
        </mxCell>
        <mxCell id="8K6KQIYLeMS0DCeynw6D-62" value="Proses masuk laporan" style="whiteSpace=wrap;html=1;strokeWidth=2;gradientColor=none;gradientDirection=north;fontStyle=0;" parent="1" vertex="1">
          <mxGeometry x="260" y="550" width="120" height="60" as="geometry" />
        </mxCell>
        <mxCell id="8K6KQIYLeMS0DCeynw6D-65" value="End" style="strokeWidth=2;html=1;shape=mxgraph.flowchart.start_1;whiteSpace=wrap;" parent="1" vertex="1">
          <mxGeometry x="470" y="640" width="100" height="30" as="geometry" />
        </mxCell>
        <mxCell id="8K6KQIYLeMS0DCeynw6D-66" value="" style="edgeStyle=elbowEdgeStyle;elbow=horizontal;exitX=0.5;exitY=0.9;fontStyle=1;strokeColor=#003366;strokeWidth=1;html=1;exitDx=0;exitDy=0;exitPerimeter=0;entryX=0.5;entryY=0;entryDx=0;entryDy=0;entryPerimeter=0;" parent="1" source="15" target="8K6KQIYLeMS0DCeynw6D-65" edge="1">
          <mxGeometry width="100" height="100" as="geometry">
            <mxPoint x="390" y="590" as="sourcePoint" />
            <mxPoint x="460" y="590" as="targetPoint" />
          </mxGeometry>
        </mxCell>
        <mxCell id="IlJeSVx5xPSjNeApjhoX-16" value="Pinjam" style="shape=parallelogram;html=1;strokeWidth=2;perimeter=parallelogramPerimeter;whiteSpace=wrap;rounded=1;arcSize=12;size=0.23;" vertex="1" parent="1">
          <mxGeometry x="257.5" y="290" width="125" height="40" as="geometry" />
        </mxCell>
      </root>
    </mxGraphModel>
  </diagram>
</mxfile>
